<?xml version="1.0" standalone="no"?><!DOCTYPE svg PUBLIC "-//W3C//DTD SVG 1.1//EN" "http://www.w3.org/Graphics/SVG/1.1/DTD/svg11.dtd"><svg t="1689835151313" class="icon" viewBox="0 0 1075 1024" version="1.1" xmlns="http://www.w3.org/2000/svg" p-id="3299" xmlns:xlink="http://www.w3.org/1999/xlink" width="209.9609375" height="200"><path d="M43.8784 0m204.8 0l614.4 0q204.8 0 204.8 204.8l0 614.4q0 204.8-204.8 204.8l-614.4 0q-204.8 0-204.8-204.8l0-614.4q0-204.8 204.8-204.8Z" fill="#FFFFFF" p-id="3300"></path><path d="M881.2544 0A186.7776 186.7776 0 0 1 1067.8784 186.624v650.752A186.7776 186.7776 0 0 1 881.2544 1024H230.5024A186.7776 186.7776 0 0 1 43.8784 837.376V186.624A186.7776 186.7776 0 0 1 230.5024 0h650.752z m0 73.1648H230.5024A113.664 113.664 0 0 0 117.0944 186.624v650.752a113.664 113.664 0 0 0 113.4592 113.4592h650.752a113.664 113.664 0 0 0 113.4592-113.4592V186.624a113.664 113.664 0 0 0-113.4592-113.4592z" fill="#CCCCCC" p-id="3301"></path></svg>