<?xml version="1.0" standalone="no"?><!DOCTYPE svg PUBLIC "-//W3C//DTD SVG 1.1//EN" "http://www.w3.org/Graphics/SVG/1.1/DTD/svg11.dtd"><svg t="1682755487880" class="icon" viewBox="0 0 1024 1024" version="1.1" xmlns="http://www.w3.org/2000/svg" p-id="19677" xmlns:xlink="http://www.w3.org/1999/xlink" width="200" height="200"><path d="M297.3 457.3c0-4.2 3.2-7.6 7.3-8 67.1-5.6 96.4-73.5 96.6-74.2 1-2.5 3.3-4.3 5.9-4.8 2.6-0.5 5.4 0.4 7.2 2.3 122.9 128.7 300.2 77.4 302 76.9 2.4-0.7 5-0.3 7.1 1.2s3.2 3.9 3.2 6.4v53.6c10.2 1.6 19.4 6.3 26.6 13v-121c0-102.9-83.8-186.7-186.7-186.7H457.4c-102.9 0-186.7 83.8-186.7 186.7v121.2c7.2-6.8 16.4-11.4 26.6-13v-53.6zM310 654.8c-7.2-18-10.3-33.8-11.6-44.3-10.6-1.5-20.2-6.1-27.7-13.2V767c0 22.6 18.4 41 41 41h162c-125.9-59.3-153-126.5-163.7-153.2zM553.9 808h158.3c22.6 0 41-18.4 41-41V597.3c-7.2 6.8-16.4 11.4-26.6 13.1-0.7 105.8-111.4 170.1-172.7 197.6z" fill="#A0D3F8" p-id="19678"></path><path d="M288 896H128V736c0-8.8-7.2-16-16-16s-16 7.2-16 16v176c0 8.8 7.2 16 16 16h176c8.8 0 16-7.2 16-16s-7.2-16-16-16zM912 720c-8.8 0-16 7.2-16 16v160H736c-8.8 0-16 7.2-16 16s7.2 16 16 16h176c8.8 0 16-7.2 16-16V736c0-8.8-7.2-16-16-16zM912 96H736c-8.8 0-16 7.2-16 16s7.2 16 16 16h160v160c0 8.8 7.2 16 16 16s16-7.2 16-16V112c0-8.8-7.2-16-16-16zM112 304c8.8 0 16-7.2 16-16V128h160c8.8 0 16-7.2 16-16s-7.2-16-16-16H112c-8.8 0-16 7.2-16 16v176c0 8.8 7.2 16 16 16zM769.3 767V402.7c0-111.8-90.9-202.7-202.7-202.7H457.4c-111.8 0-202.7 90.9-202.7 202.7V767c0 31.5 25.6 57 57 57h400.5c31.5 0 57.1-25.6 57.1-57zM270.7 402.7c0-102.9 83.8-186.7 186.7-186.7h109.2c102.9 0 186.7 83.8 186.7 186.7v121.2c-7.2-6.8-16.4-11.4-26.6-13v-53.6c0-2.5-1.2-4.9-3.2-6.4s-4.7-2-7.1-1.2c-1.8 0.5-179.1 51.8-302-76.9-1.9-2-4.6-2.9-7.2-2.3-2.6 0.5-4.9 2.3-5.9 4.8-0.3 0.7-29.5 68.6-96.6 74.2-4.1 0.3-7.3 3.8-7.3 8v53.6c-10.2 1.6-19.4 6.3-26.6 13V402.7z m482.6 157.9c0 16.3-11.4 29.9-26.6 33.5V527c15.2 3.7 26.6 17.4 26.6 33.6z m-456-33.5v67.1c-15.2-3.6-26.6-17.2-26.6-33.5s11.4-30 26.6-33.6zM311.8 808c-22.6 0-41-18.4-41-41V597.3c7.5 7 17 11.7 27.7 13.2 1.4 10.5 4.4 26.3 11.6 44.3 10.7 26.6 37.8 93.8 163.8 153.2H311.8z m13.1-159.1c-11.4-28.4-11.6-51.5-11.6-51.8V464.4c55.7-8 86.2-52.1 97.5-72.6 111.3 108.2 259.8 84.6 299.9 75.7V609.3c0 123.9-174.6 189.8-198.5 198.2-147.8-59.9-176.5-131.6-187.3-158.6zM712.2 808H553.9c61.3-27.5 172-91.8 172.8-197.6 10.2-1.6 19.4-6.3 26.6-13.1V767c0 22.6-18.4 41-41.1 41z" fill="#108EE9" p-id="19679"></path><path d="M435.9 490.8c-33-13.2-65.4-0.5-66.7 0-4.1 1.6-6.1 6.3-4.5 10.4 1.2 3.1 4.3 5 7.4 5 1 0 2-0.2 3-0.6 0.3-0.1 27.7-10.9 54.9 0 4.1 1.6 8.8-0.3 10.4-4.5 1.6-4-0.4-8.6-4.5-10.3zM648.7 490.8c-33-13.2-65.4-0.5-66.7 0-4.1 1.6-6.1 6.3-4.5 10.4 1.6 4.1 6.3 6.1 10.4 4.5 0.3-0.1 27.9-10.8 54.9 0 1 0.4 2 0.6 3 0.6 3.2 0 6.2-1.9 7.4-5 1.6-4.2-0.4-8.8-4.5-10.5zM408.6 522.2c-14.5 0-26.2 11.8-26.2 26.2s11.8 26.2 26.2 26.2 26.2-11.8 26.2-26.2-11.7-26.2-26.2-26.2z m0 36.5c-5.6 0-10.2-4.6-10.2-10.2s4.6-10.2 10.2-10.2 10.2 4.6 10.2 10.2c0.1 5.6-4.5 10.2-10.2 10.2zM612.3 525.3c-14.5 0-26.2 11.8-26.2 26.2s11.8 26.2 26.2 26.2 26.2-11.8 26.2-26.2-11.7-26.2-26.2-26.2z m0 36.5c-5.6 0-10.2-4.6-10.2-10.2s4.6-10.2 10.2-10.2 10.2 4.6 10.2 10.2c0.1 5.6-4.5 10.2-10.2 10.2zM498.4 636.7h26.3c4.4 0 8-3.6 8-8s-3.6-8-8-8h-26.3c-4.4 0-8 3.6-8 8s3.5 8 8 8zM568.2 675.7c-55.3 38.7-110.1 1.6-112.4 0-3.6-2.5-8.6-1.6-11.1 2s-1.6 8.6 2 11.1c0.4 0.3 29.5 20.2 68 20.2 19.4 0 41.1-5.1 62.8-20.2 3.6-2.5 4.5-7.5 2-11.1-2.7-3.7-7.7-4.5-11.3-2z" fill="#108EE9" p-id="19680"></path></svg>