<?xml version="1.0" standalone="no"?><!DOCTYPE svg PUBLIC "-//W3C//DTD SVG 1.1//EN" "http://www.w3.org/Graphics/SVG/1.1/DTD/svg11.dtd"><svg t="1682755880960" class="icon" viewBox="0 0 1024 1024" version="1.1" xmlns="http://www.w3.org/2000/svg" p-id="25614" xmlns:xlink="http://www.w3.org/1999/xlink" width="200" height="200"><path d="M994.72 973.44A39.84 39.84 0 0 1 960.8 992H80a39.84 39.84 0 0 1-33.92-18.4 34.4 34.4 0 0 1 0-36.64A40.16 40.16 0 0 1 80 918.24h880a39.84 39.84 0 0 1 34.08 18.4 34.08 34.08 0 0 1 0.64 36.8zM545.44 688a272 272 0 0 1-148 68.64l-96 7.84c-46.24 3.84-71.68 5.92-76.48 5.92a36.96 36.96 0 0 1-26.24-10.72c-12.64-12.48-12.64-12.48-5.12-102.56l8-96a272 272 0 0 1 68.64-148l352-351.2a113.28 113.28 0 0 1 155.84 0l118.88 118.88a109.92 109.92 0 0 1 0 155.36z m299.52-455.2l-118.88-118.88a37.12 37.12 0 0 0-51.84 0l-352 352a195.52 195.52 0 0 0-48 102.24l-8 96-2.56 30.88 30.88-2.56 96-8a196.64 196.64 0 0 0 102.24-48l352-351.04a37.12 37.12 0 0 0 0-51.84z" fill="#4592D8" p-id="25615"></path></svg>