<?xml version="1.0" standalone="no"?><!DOCTYPE svg PUBLIC "-//W3C//DTD SVG 1.1//EN" "http://www.w3.org/Graphics/SVG/1.1/DTD/svg11.dtd"><svg t="1682754846420" class="icon" viewBox="0 0 1024 1024" version="1.1" xmlns="http://www.w3.org/2000/svg" p-id="9869" xmlns:xlink="http://www.w3.org/1999/xlink" width="200" height="200"><path d="M146.285714 109.714286v768h768a36.571429 36.571429 0 1 1 0 73.142857H146.285714a73.142857 73.142857 0 0 1-73.142857-73.142857V109.714286a36.571429 36.571429 0 1 1 73.142857 0z m292.864 205.458285l247.149715 149.467429 124.854857-226.523429a34.816 34.816 0 0 1 48.713143-13.677714c17.078857 10.313143 22.930286 33.170286 13.056 51.053714l-160.548572 291.254858-247.113143-149.467429-142.701714 258.889143a34.816 34.816 0 0 1-48.713143 13.677714c-17.078857-10.313143-22.930286-33.170286-13.056-51.053714l178.358857-323.620572z" fill="#808BB5" p-id="9870"></path></svg>