<?xml version="1.0" standalone="no"?><!DOCTYPE svg PUBLIC "-//W3C//DTD SVG 1.1//EN" "http://www.w3.org/Graphics/SVG/1.1/DTD/svg11.dtd"><svg t="1682699839893" class="icon" viewBox="0 0 1024 1024" version="1.1" xmlns="http://www.w3.org/2000/svg" p-id="1878" xmlns:xlink="http://www.w3.org/1999/xlink" width="200" height="200"><path d="M512 1013.76l-245.1968-213.3504S358.912 875.52 512 875.52c149.8112 0 245.1968-75.008 245.1968-75.008z" fill="#FFFFFF" p-id="1879"></path><path d="M512 430.08m-419.84 0a419.84 419.84 0 1 0 839.68 0 419.84 419.84 0 1 0-839.68 0Z" fill="#26B3C4" opacity=".9" p-id="1880"></path><path d="M770.7648 204.4416h-2.4576c-83.3024 0.3584-145.408 11.8272-190.0544 31.6416-33.4336 14.7968-46.5408 26.0096-46.5408 63.8976v387.2256a4.7616 4.7616 0 0 0 2.7136 4.1472 4.5568 4.5568 0 0 0 5.12-0.6656c44.8512-37.7344 90.5216-50.8416 231.8848-52.2752a37.0176 37.0176 0 0 0 36.5568-36.9664V241.408a36.9664 36.9664 0 0 0-36.9664-36.9664z m-325.0176 31.6416c-44.6464-19.8144-106.752-31.2832-190.0544-31.6416h-2.4576a36.9664 36.9664 0 0 0-36.9664 36.9664v360.0384a37.0176 37.0176 0 0 0 36.5568 36.9664c141.4144 1.5872 187.0336 14.5408 231.8848 52.2752a4.5568 4.5568 0 0 0 5.12 0.6656 4.7616 4.7616 0 0 0 2.7136-4.1472V299.9808c0-37.888-13.1072-49.1008-46.5408-63.8976z m0 0" fill="#FFFFFF" p-id="1881"></path></svg>