<?xml version="1.0" standalone="no"?><!DOCTYPE svg PUBLIC "-//W3C//DTD SVG 1.1//EN" "http://www.w3.org/Graphics/SVG/1.1/DTD/svg11.dtd"><svg t="1682754355240" class="icon" viewBox="0 0 1024 1024" version="1.1" xmlns="http://www.w3.org/2000/svg" p-id="2642" xmlns:xlink="http://www.w3.org/1999/xlink" width="200" height="200"><path d="M512 12.8C236.7488 12.8 12.8 236.7488 12.8 512s223.9488 499.2 499.2 499.2a496.384 496.384 0 0 0 448.3072-279.296 38.4 38.4 0 0 0-68.9664-33.8944A420.0448 420.0448 0 0 1 512 934.4c-232.9088 0-422.4-189.4912-422.4-422.4S279.0912 89.6 512 89.6s422.4 189.4912 422.4 422.4a38.4 38.4 0 0 0 76.8 0c0-275.2512-223.9488-499.2-499.2-499.2z" fill="#438CFF" p-id="2643"></path><path d="M704 365.6704c0-105.8304-86.1184-192-192-192s-192 86.1696-192 192a38.4 38.4 0 0 0 76.8 0c0-63.488 51.6608-115.2 115.2-115.2s115.2 51.712 115.2 115.2-51.6608 115.2-115.2 115.2a38.4 38.4 0 0 0-38.4 38.4c0 1.024 0.512 1.8944 0.5632 2.8672-0.1024 1.024-0.5632 1.8432-0.5632 2.8672v153.6a38.4 38.4 0 0 0 76.8 0v-124.8256c87.552-17.8176 153.6-95.3856 153.6-188.1088z" fill="#438CFF" p-id="2644"></path><path d="M512 825.088m-51.2 0a51.2 51.2 0 1 0 102.4 0 51.2 51.2 0 1 0-102.4 0Z" fill="#438CFF" p-id="2645"></path></svg>