<?xml version="1.0" standalone="no"?><!DOCTYPE svg PUBLIC "-//W3C//DTD SVG 1.1//EN" "http://www.w3.org/Graphics/SVG/1.1/DTD/svg11.dtd"><svg t="1682755131887" class="icon" viewBox="0 0 1024 1024" version="1.1" xmlns="http://www.w3.org/2000/svg" p-id="14027" xmlns:xlink="http://www.w3.org/1999/xlink" width="200" height="200"><path d="M443.5 792C251.029 792 95 635.971 95 443.5S251.029 95 443.5 95 792 251.029 792 443.5 635.971 792 443.5 792z m0-60C602.834 732 732 602.834 732 443.5S602.834 155 443.5 155 155 284.166 155 443.5 284.166 732 443.5 732z" fill="#2F54EB" p-id="14028"></path><path d="M655 440.5c0 11.046-8.954 20-20 20s-20-8.954-20-20c0-95.27-77.23-172.5-172.5-172.5-11.046 0-20-8.954-20-20s8.954-20 20-20C559.86 228 655 323.14 655 440.5z" fill="#85A5FF" p-id="14029"></path><path d="M667.79 709.986c-11.715-11.715-11.715-30.71 0-42.426 11.716-11.716 30.711-11.716 42.427 0L916.18 873.524c11.715 11.716 11.715 30.71 0 42.426-11.716 11.716-30.71 11.716-42.427 0L667.79 709.986z" fill="#2F54EB" p-id="14030"></path></svg>