<?xml version="1.0" standalone="no"?><!DOCTYPE svg PUBLIC "-//W3C//DTD SVG 1.1//EN" "http://www.w3.org/Graphics/SVG/1.1/DTD/svg11.dtd"><svg t="1682756148532" class="icon" viewBox="0 0 1024 1024" version="1.1" xmlns="http://www.w3.org/2000/svg" p-id="31596" xmlns:xlink="http://www.w3.org/1999/xlink" width="200" height="200"><path d="M907.712 642.592L905.088 340 700.832 485.056l206.88 157.536z m-39.68-354.784a64 64 0 0 1 101.056 51.648l2.624 302.592a64 64 0 0 1-102.752 51.456L662.048 535.968a64 64 0 0 1 1.728-103.104l204.256-145.056z" p-id="31597"></path><path d="M144 256a32 32 0 0 0-32 32v417.376a32 32 0 0 0 32 32h456.32a32 32 0 0 0 32-32V288a32 32 0 0 0-32-32H144z m0-64h456.32a96 96 0 0 1 96 96v417.376a96 96 0 0 1-96 96H144a96 96 0 0 1-96-96V288a96 96 0 0 1 96-96z" p-id="31598"></path></svg>