<?xml version="1.0" standalone="no"?><!DOCTYPE svg PUBLIC "-//W3C//DTD SVG 1.1//EN" "http://www.w3.org/Graphics/SVG/1.1/DTD/svg11.dtd"><svg t="1682755008158" class="icon" viewBox="0 0 1024 1024" version="1.1" xmlns="http://www.w3.org/2000/svg" p-id="11985" xmlns:xlink="http://www.w3.org/1999/xlink" width="200" height="200"><path d="M101.133474 921.6a28.483368 28.483368 0 0 1-30.127158-30.127158V86.716632a30.154105 30.154105 0 1 1 60.281263 0v804.75621A28.483368 28.483368 0 0 1 101.133474 921.6z" fill="#208BB5" p-id="11986"></path><path d="M939.034947 921.6H101.133474a30.154105 30.154105 0 0 1 0-60.281263h837.901473a30.154105 30.154105 0 0 1 0 60.281263z" fill="#208BB5" p-id="11987"></path><path d="M785.300211 749.783579a28.483368 28.483368 0 0 1-30.127158-30.127158V237.406316a30.154105 30.154105 0 1 1 60.281263 0v482.357895a28.483368 28.483368 0 0 1-30.154105 30.019368zM245.813895 749.810526a28.483368 28.483368 0 0 1-30.127158-30.127158V348.941474a30.154105 30.154105 0 1 1 60.281263 0v370.741894a28.483368 28.483368 0 0 1-30.154105 30.127158zM520.084211 749.810526a28.483368 28.483368 0 0 1-30.127158-30.127158V180.143158a30.154105 30.154105 0 1 1 60.281263 0v539.513263a28.483368 28.483368 0 0 1-30.154105 30.154105z" fill="#83D2EA" p-id="11988"></path></svg>