<?xml version="1.0" standalone="no"?><!DOCTYPE svg PUBLIC "-//W3C//DTD SVG 1.1//EN" "http://www.w3.org/Graphics/SVG/1.1/DTD/svg11.dtd"><svg t="1682757034982" class="icon" viewBox="0 0 1024 1024" version="1.1" xmlns="http://www.w3.org/2000/svg" p-id="33671" xmlns:xlink="http://www.w3.org/1999/xlink" width="200" height="200"><path d="M170.2 246.4h342.1s44.2-77.8 89.1-77.8h254.9c20.7 0 37.7 19.8 37.7 44l1.1 598.1c0 24.2-19.8 44-44 44h-681c-24.2 0-44-19.8-44-44V290.4c0.1-24.2 19.9-44 44.1-44z" fill="#694B4B" p-id="33672"></path><path d="M862.9 671.5l-688 38.3-22.2-406.4 688.1-59.3z" fill="#593F3F" p-id="33673"></path><path d="M870.8 671.8L242.2 707l-21.1-388 634.6-35.2z" fill="#593F3F" p-id="33674"></path><path d="M840.7 673.7L218.1 725l-21.9-383.4 623.4-55.9z" fill="#FFFFFF" p-id="33675"></path><path d="M807.9 715.1L178.6 750l-22.2-406.3 629.7-48.1z" fill="#F2F2F1" p-id="33676"></path><path d="M796 713.5l-619 36.3-22.1-406.3 618.8-40.1z" fill="#FFFFFF" p-id="33677"></path><path d="M895.2 425.1H509.1s-44.2-71.4-89.1-71.4H125.1c-20.7 0-38.9 16.3-38.9 36l40 429.2c0 19.7 19.8 35.8 44 35.8h685c24.2 0 44-16.1 44-35.8l40-358c0-19.7-19.8-35.8-44-35.8z" fill="#00B5FC" p-id="33678"></path></svg>