<?xml version="1.0" standalone="no"?><!DOCTYPE svg PUBLIC "-//W3C//DTD SVG 1.1//EN" "http://www.w3.org/Graphics/SVG/1.1/DTD/svg11.dtd"><svg t="1682754486800" class="icon" viewBox="0 0 1024 1024" version="1.1" xmlns="http://www.w3.org/2000/svg" p-id="3636" xmlns:xlink="http://www.w3.org/1999/xlink" width="200" height="200"><path d="M282.92608 309.46304h433.152c34.304 0 61.952 27.648 61.952 61.952v402.432c0 34.304-27.648 61.952-61.952 61.952h-433.152c-34.304 0-61.952-27.648-61.952-61.952v-402.432c0-34.304 28.16-61.952 61.952-61.952z" fill="#CAE4FF" p-id="3637"></path><path d="M320.30208 305.87904c19.456 0 35.328-15.872 35.328-35.328v-140.8c0-19.456-15.872-35.328-35.328-35.328-19.456 0-35.328 15.872-35.328 35.328v140.8c0 19.456 15.872 35.328 35.328 35.328z m176.128 0c19.456 0 35.328-15.872 35.328-35.328v-140.8c0-19.456-15.872-35.328-35.328-35.328-19.456 0-35.328 15.872-35.328 35.328v140.8c0.512 19.456 15.872 35.328 35.328 35.328z m-105.472-143.872h35.328v70.656h-35.328v-70.656z m176.128 0h35.328v70.656h-35.328v-70.656z m352.256 674.304v-572.416c0-58.368-47.104-105.984-105.472-105.984h-70.656v70.656h70.656c19.456 0 35.328 15.872 35.328 35.328v572.416c0 19.456-15.872 35.328-35.328 35.328h-634.368c-19.456 0-35.328-15.872-35.328-35.328h-0.512l0.512-572.416c0-19.456 15.872-35.328 35.328-35.328h70.656v-70.144h-70.656c-58.368 0-105.472 47.104-105.472 105.472v572.416c0 58.368 47.104 105.472 105.472 105.984h633.856c56.32 0 102.4-44.032 105.472-100.352 0-0.512 0.512-0.512 0.512-1.024v-4.608z m-246.784-530.432c19.456 0 35.328-15.872 35.328-35.328v-140.8c0-19.456-15.872-35.328-35.328-35.328-19.456 0-35.328 15.872-35.328 35.328v140.8c0.512 19.456 15.872 35.328 35.328 35.328z m-388.096 141.312h422.912c19.456 0 35.328-15.872 35.328-35.328 0-19.456-15.872-35.328-35.328-35.328h-422.912c-19.456 0-35.328 15.872-35.328 35.328 0 19.456 15.872 35.328 35.328 35.328z m422.912 103.424h-422.912c-19.456 0-35.328 15.872-35.328 35.328s15.872 35.328 35.328 35.328h422.912c19.456 0 35.328-15.872 35.328-35.328s-15.872-35.328-35.328-35.328z m0 180.736h-422.912c-19.456 0-35.328 15.872-35.328 35.328 0 19.456 15.872 35.328 35.328 35.328h422.912c19.456-1.024 34.304-17.408 33.28-36.864-0.512-18.432-14.848-32.768-33.28-33.792z" fill="#0972E7" p-id="3638"></path></svg>