<?xml version="1.0" standalone="no"?><!DOCTYPE svg PUBLIC "-//W3C//DTD SVG 1.1//EN" "http://www.w3.org/Graphics/SVG/1.1/DTD/svg11.dtd"><svg t="1682757996344" class="icon" viewBox="0 0 1024 1024" version="1.1" xmlns="http://www.w3.org/2000/svg" p-id="40018" xmlns:xlink="http://www.w3.org/1999/xlink" width="200" height="200"><path d="M472.7296 269.6704m-218.5728 0a218.5728 218.5728 0 1 0 437.1456 0 218.5728 218.5728 0 1 0-437.1456 0Z" fill="#80B7F9" p-id="40019"></path><path d="M554.8544 506.6752H390.656c-176.5888 0-319.744 143.1552-319.744 319.744 0 63.0784 51.1488 114.176 114.176 114.176h575.2832c63.0784 0 114.176-51.1488 114.176-114.176 0-176.5888-143.104-319.744-319.6928-319.744z" fill="#80B7F9" p-id="40020"></path><path d="M747.52 771.072m-202.2912 0a202.2912 202.2912 0 1 0 404.5824 0 202.2912 202.2912 0 1 0-404.5824 0Z" fill="#95C9FC" p-id="40021"></path><path d="M744.2944 568.8832c-110.1824 1.7408-199.0144 91.5456-199.0144 202.1888 0 71.0144 36.608 133.4272 92.0064 169.5232h123.136c63.0784 0 114.176-51.1488 114.176-114.176-0.0512-105.6768-51.3024-199.3216-130.304-257.536z" fill="#3E8BF8" p-id="40022"></path><path d="M810.4448 730.112H788.48v-21.9136c0-22.6304-18.3296-40.96-40.96-40.96s-40.96 18.3296-40.96 40.96v21.9136h-21.9136c-22.6304 0-40.96 18.3296-40.96 40.96s18.3296 40.96 40.96 40.96H706.56v21.9136c0 22.6304 18.3296 40.96 40.96 40.96s40.96-18.3296 40.96-40.96v-21.9136h21.9136c22.6304 0 40.96-18.3296 40.96-40.96s-18.3296-40.96-40.9088-40.96z" fill="#FFFFFF" p-id="40023"></path></svg>