<?xml version="1.0" standalone="no"?><!DOCTYPE svg PUBLIC "-//W3C//DTD SVG 1.1//EN" "http://www.w3.org/Graphics/SVG/1.1/DTD/svg11.dtd"><svg t="1682755241101" class="icon" viewBox="0 0 1024 1024" version="1.1" xmlns="http://www.w3.org/2000/svg" p-id="15723" xmlns:xlink="http://www.w3.org/1999/xlink" width="200" height="200"><path d="M484.751579 529.237872c4.782757 0 9.621781 0.393874 14.517074 0.393874a264.795926 264.795926 0 1 0-145.227005-43.607489 471.861163 471.861163 0 0 0-172.404317 106.627344C95.435172 675.927837 38.661035 789.869986 21.724449 914.109128a99.593878 99.593878 0 0 0 23.238572 78.774819 88.509135 88.509135 0 0 0 66.452186 30.834714h345.315044a33.760637 33.760637 0 0 0 0-67.521273H111.358939a21.156666 21.156666 0 0 1-15.58616-7.708678 32.128872 32.128872 0 0 1-7.202269-25.545549c29.934431-219.162799 198.906417-385.884076 396.181069-393.705289zM303.850835 265.173426A195.474086 195.474086 0 1 1 499.043582 460.647512 195.699156 195.699156 0 0 1 303.850835 265.173426z" fill="#467CFD" p-id="15724"></path><path d="M991.83634 613.47066l-34.15451-34.041975a36.348952 36.348952 0 0 0-51.2599 0l-42.763473 42.538402 85.526946 85.133071 42.707205-42.482134a35.955078 35.955078 0 0 0-0.056268-51.147364zM615.292707 869.151214l85.526946 85.133072 232.385715-229.516061-85.470678-85.133072-232.441983 229.516061zM546.758615 1023.831197v0.168803l136.67431-53.848215-84.739197-84.345324-51.935113 138.024736z" fill="#8BAEF7" p-id="15725"></path></svg>